# xmcd
#
# Track frame offsets:
#	150
#	16040
#	35644
#	49800
#	67694
#	83684
#	99315
#	114623
#	134797
#	154192
#	175587
#	189884
#
# Disc length: 2836 seconds
#
# Revision: 0
# Processed by: cddbd v1.5.2PL0 Copyright (c) Steve Scherf et al.
# Submitted via: audiograbber 1.83.01
#
DISCID=8e0b120c
DTITLE=Ned LeDoux - Sagebrush
DYEAR=2017
DGENRE=Country
TTITLE0=Never Change
TTITLE1=Cowboy Life
TTITLE2=We Ain't Got It All
TTITLE3=Some People Do
TTITLE4=Brother Highway
TTITLE5=Better Part of Living
TTITLE6=Forever a Cowboy
TTITLE7=By My Side
TTITLE8=Another Horse to Ride
TTITLE9=Johnson County War
TTITLE10=The Hawk
TTITLE11=This Cowboy's Hat (feat. Chase Rice)
EXTD=
EXTT0=
EXTT1=
EXTT2=
EXTT3=
EXTT4=
EXTT5=
EXTT6=
EXTT7=
EXTT8=
EXTT9=
EXTT10=
EXTT11=
PLAYORDER=
